<?xml version="1.0" encoding="UTF-8"?>
<svg id="Layer_1" xmlns="http://www.w3.org/2000/svg" version="1.1" viewBox="0 0 1529.05 230.48">
  <!-- Generator: Adobe Illustrator 30.5.1, SVG Export Plug-In . SVG Version: 2.1.4 Build 3)  -->
  <defs>
    <style>
      .st0 {
        fill: #691dae;
      }

      .st1 {
        fill: #ba98ea;
      }
    </style>
  </defs>
  <g>
    <g>
      <path class="st0" d="M203.16,155.24l-.13,48.1-48.1-.13c.03-12.31,4.76-24.6,14.18-33.97,9.42-9.37,21.74-14.03,34.05-13.99Z"/>
      <path class="st0" d="M160.72,98.32c-14.07,5.66-26.69,13.99-37.52,24.76-10.83,10.77-19.23,23.35-24.97,37.38-5.54,13.55-8.37,27.87-8.41,42.57l30.43.08c.03-10.76,2.1-21.23,6.15-31.14,4.19-10.25,10.33-19.44,18.26-27.32,7.93-7.88,17.15-13.98,27.42-18.11,9.93-3.99,20.41-6,31.17-5.97l.08-30.43c-14.69-.04-29.03,2.71-42.61,8.17Z"/>
      <path class="st1" d="M136.6,38.42c-22.09,8.89-41.91,21.97-58.92,38.88-17.01,16.92-30.2,36.67-39.21,58.7-8.7,21.28-13.14,43.77-13.2,66.85l30.43.08c.05-19.14,3.73-37.79,10.94-55.42,7.46-18.25,18.39-34.61,32.5-48.64,14.11-14.03,30.53-24.87,48.82-32.23,17.67-7.11,36.34-10.69,55.48-10.63l.08-30.43c-23.08-.06-45.59,4.25-66.92,12.83Z"/>
    </g>
    <path class="st0" d="M227.87,227.87H0V0h227.87v227.87ZM7.44,220.43h212.99V7.44H7.44v212.99Z"/>
  </g>
  <g>
    <path class="st0" d="M285.23.59c1.68,0,2.3.63,2.93,2.71l34.47,112.38c.42,1.05.83,1.47,1.67,1.47h1.04c.84,0,1.25-.42,1.68-1.47l33.21-102.98c2.72-8.99,7.52-12.12,15.46-12.12h22.14c9.19,0,13.78,3.13,16.5,12.12l33.84,102.98c.42,1.05.84,1.47,1.88,1.47h.84c1.04,0,1.46-.42,1.87-1.47L486.6,3.3c.63-2.08,1.67-2.71,3.13-2.71h27.57c1.88,0,2.51,2.08,1.68,4.8l-39.28,125.54c-3.76,12.33-7.94,15.88-16.08,15.88h-25.91c-8.14,0-12.32-3.55-16.08-15.88l-32.17-99.23c-.21-1.04-.63-1.46-1.47-1.46h-1.04c-.84,0-1.47.42-1.67,1.46l-32.17,99.23c-3.76,12.54-7.73,15.88-15.88,15.88h-24.86c-9.4,0-13.58-3.13-17.34-15.88L256.2,5.39c-.83-2.92-.63-4.8,1.67-4.8h27.37Z"/>
    <path class="st0" d="M561.91.59c3.13,0,4.6,1.46,4.6,4.59v137.04c0,3.13-1.47,4.59-4.6,4.59h-22.56c-3.13,0-4.59-1.47-4.59-4.59V5.18c0-3.13,1.47-4.59,4.59-4.59h22.56Z"/>
    <path class="st0" d="M737.54.59c2.92,0,4.6,1.46,4.6,4.59v20.27c0,2.92-1.68,4.59-4.6,4.59h-90.86c-21.52,0-27.79,6.06-27.79,27.99v3.13h117.4c2.92,0,4.6,1.67,4.6,4.59v18.6c0,3.13-1.68,4.59-4.6,4.59h-117.4v53.27c0,3.13-1.46,4.59-4.59,4.59h-22.56c-3.13,0-4.59-1.47-4.59-4.59V55.73c0-40.11,16.08-55.15,58.48-55.15h91.91Z"/>
    <path class="st0" d="M785.54.59c3.13,0,4.6,1.46,4.6,4.59v137.04c0,3.13-1.47,4.59-4.6,4.59h-22.56c-3.13,0-4.59-1.47-4.59-4.59V5.18c0-3.13,1.47-4.59,4.59-4.59h22.56Z"/>
    <path class="st1" d="M930.07.59c31.96,0,44.91,14.83,44.91,42.82v15.67c0,28.2-12.95,43.66-44.91,43.66h-86.48v39.48c0,3.13-1.47,4.59-4.6,4.59h-22.56c-3.13,0-4.59-1.47-4.59-4.59V6.85c0-4.18,2.09-6.26,6.27-6.26h111.96ZM923.59,73.91c14.21,0,19.43-5.64,19.43-17.96v-7.94c0-12.54-5.22-18.18-19.43-18.18h-77.29c-1.88,0-2.71.84-2.71,2.51v41.57h80Z"/>
    <path class="st1" d="M1109.57.59c31.13,0,44.91,14,44.91,42.82v12.12c0,24.23-9.61,38.44-30.29,42.61l34.89,43.24c1.67,2.09.63,5.43-2.72,5.43h-27.99c-3.34,0-4.38-.84-5.85-2.72l-33.21-42.4h-66.22v40.53c0,3.13-1.47,4.59-4.6,4.59h-22.56c-3.13,0-4.59-1.47-4.59-4.59V6.85c0-4.18,2.09-6.26,6.27-6.26h111.96ZM1103.09,74.12c14.21,0,19.43-5.02,19.43-17.55v-8.77c0-12.74-5.43-17.97-19.43-17.97h-77.29c-1.88,0-2.71.63-2.71,2.3v41.99h80Z"/>
    <path class="st1" d="M1295.29.59c42.4,0,58.48,15.04,58.48,55.15v35.93c0,40.11-16.08,55.15-58.48,55.15h-64.35c-42.4,0-58.48-15.25-58.48-55.15v-35.93c0-39.9,16.08-55.15,58.48-55.15h64.35ZM1204.21,89.37c0,21.93,6.06,27.98,27.79,27.98h62.04c21.72,0,27.78-6.06,27.78-27.98v-31.34c0-21.93-6.06-27.99-27.78-27.99h-62.04c-21.72,0-27.79,6.06-27.79,27.99v31.34Z"/>
    <path class="st1" d="M1519.02.59c2.93,0,4.6,1.46,4.6,4.59v20.27c0,2.92-1.67,4.59-4.6,4.59h-104.65c-7.52,0-11.07,3.55-11.07,11.28v7.1c0,7.52,3.34,10.65,11.07,10.65h78.12c23.4,0,36.56,13.37,36.56,36.77v16.92c0,21.52-12.95,34.05-36.97,34.05h-115.73c-3.13,0-4.59-1.47-4.59-4.59v-20.27c0-2.92,1.46-4.6,4.59-4.6h109.67c7.31,0,11.07-3.55,11.07-11.28v-8.57c0-7.52-3.13-10.65-10.86-10.65h-78.33c-23.39,0-36.35-13.37-36.35-36.77v-15.45c0-21.52,12.74-34.05,36.77-34.05h110.71Z"/>
  </g>
  <g>
    <path class="st0" d="M308.05,189.1c4.26,0,4.96.89,6.86,3.49l21.75,28.84c.17.3.42.42.77.42h.53c.3,0,.47-.17.47-.59v-30.86c0-.89.42-1.3,1.3-1.3h6.32c.89,0,1.3.42,1.3,1.3v33.93c0,4.67-1.6,6.15-5.32,6.15h-5.26c-4.26,0-4.96-.89-6.8-3.48l-21.81-28.85c-.23-.29-.42-.42-.77-.42h-.53c-.36,0-.47.18-.47.59v30.86c0,.88-.47,1.3-1.3,1.3h-6.32c-.89,0-1.3-.42-1.3-1.3v-33.93c0-4.67,1.54-6.15,5.26-6.15h5.32Z"/>
    <path class="st0" d="M404.53,189.1c.83,0,1.3.42,1.3,1.3v5.73c0,.83-.47,1.3-1.3,1.3h-25.95c-6.09,0-7.68,1.71-7.68,7.92v.29h33.28c.82,0,1.3.42,1.3,1.3v5.26c0,.89-.47,1.3-1.3,1.3h-33.28v.71c0,6.2,1.6,7.92,7.68,7.92h25.95c.83,0,1.3.47,1.3,1.3v5.74c0,.88-.47,1.3-1.3,1.3h-26.01c-12,0-16.55-4.32-16.55-15.61v-10.17c0-11.29,4.56-15.61,16.55-15.61h26.01Z"/>
    <path class="st0" d="M465.95,189.1c.89,0,1.36.42,1.36,1.3v5.8c0,.88-.47,1.3-1.36,1.3h-18.62v31.69c0,.88-.36,1.3-1.24,1.3h-6.44c-.83,0-1.3-.42-1.3-1.3v-31.69h-18.62c-.83,0-1.3-.42-1.3-1.3v-5.8c0-.89.47-1.3,1.3-1.3h46.22Z"/>
    <path class="st0" d="M487.37,189.1c.47,0,.65.18.82.77l9.75,31.8c.12.29.24.41.47.41h.3c.23,0,.35-.12.47-.41l9.4-29.14c.77-2.54,2.13-3.43,4.37-3.43h6.27c2.6,0,3.9.89,4.67,3.43l9.58,29.14c.12.29.23.41.53.41h.23c.3,0,.42-.12.53-.41l9.58-31.8c.17-.59.47-.77.89-.77h7.8c.53,0,.71.6.47,1.36l-11.12,35.53c-1.06,3.48-2.25,4.49-4.55,4.49h-7.33c-2.3,0-3.48-1.01-4.55-4.49l-9.1-28.08c-.06-.3-.17-.42-.42-.42h-.29c-.24,0-.42.12-.47.42l-9.1,28.08c-1.06,3.54-2.19,4.49-4.49,4.49h-7.03c-2.66,0-3.84-.89-4.91-4.49l-11-35.53c-.23-.83-.17-1.36.47-1.36h7.75Z"/>
    <path class="st0" d="M599.99,189.1c12,0,16.55,4.26,16.55,15.61v10.17c0,11.35-4.55,15.61-16.55,15.61h-18.21c-12,0-16.55-4.32-16.55-15.61v-10.17c0-11.29,4.56-15.61,16.55-15.61h18.21ZM574.22,214.22c0,6.2,1.71,7.92,7.87,7.92h17.55c6.15,0,7.87-1.72,7.87-7.92v-8.86c0-6.21-1.72-7.92-7.87-7.92h-17.55c-6.15,0-7.87,1.71-7.87,7.92v8.86Z"/>
    <path class="st0" d="M664.61,189.1c8.81,0,12.71,3.97,12.71,12.12v3.43c0,6.86-2.72,10.88-8.57,12.06l9.87,12.23c.47.59.17,1.54-.77,1.54h-7.92c-.95,0-1.24-.23-1.65-.77l-9.4-12.01h-18.74v11.47c0,.88-.42,1.3-1.3,1.3h-6.39c-.89,0-1.3-.42-1.3-1.3v-38.31c0-1.18.59-1.78,1.78-1.78h31.68ZM662.78,209.91c4.02,0,5.5-1.42,5.5-4.96v-2.49c0-3.61-1.54-5.08-5.5-5.08h-21.88c-.53,0-.77.17-.77.65v11.88h22.64Z"/>
    <path class="st0" d="M699.96,189.1c.88,0,1.3.42,1.3,1.3v15.42h8.22c4.02,0,5.02-.35,6.56-2.36l10.29-13.6c.42-.59.71-.77,1.72-.77h7.38c.89,0,1.18.83.71,1.42l-11.47,14.84c-1.3,1.71-2.42,3.01-3.54,3.96,1.6,1.01,3.01,2.36,4.49,4.26l12.12,15.37c.47.47.24,1.54-.77,1.54h-7.51c-.95,0-1.3-.17-1.71-.77l-10.93-14.01c-1.54-2.01-2.72-2.43-6.56-2.43h-8.99v15.91c0,.88-.42,1.3-1.3,1.3h-6.39c-.89,0-1.3-.42-1.3-1.3v-38.78c0-.89.42-1.3,1.3-1.3h6.39Z"/>
    <path class="st0" d="M817.08,189.1c.89,0,1.3.42,1.3,1.3v5.8c0,.88-.42,1.3-1.3,1.3h-26.3c-6.09,0-7.87,1.83-7.87,8.1v8.39c0,6.27,1.77,8.1,7.87,8.1h26.3c.89,0,1.3.42,1.3,1.3v5.8c0,.88-.42,1.3-1.3,1.3h-26.6c-12,0-16.55-4.26-16.55-15.61v-10.17c0-11.35,4.56-15.61,16.55-15.61h26.6Z"/>
    <path class="st0" d="M866.22,189.1c12,0,16.55,4.26,16.55,15.61v10.17c0,11.35-4.55,15.61-16.55,15.61h-18.21c-12,0-16.55-4.32-16.55-15.61v-10.17c0-11.29,4.56-15.61,16.55-15.61h18.21ZM840.45,214.22c0,6.2,1.71,7.92,7.87,7.92h17.55c6.15,0,7.87-1.72,7.87-7.92v-8.86c0-6.21-1.72-7.92-7.87-7.92h-17.55c-6.15,0-7.87,1.71-7.87,7.92v8.86Z"/>
    <path class="st0" d="M907.98,189.1c4.26,0,4.96.89,6.86,3.49l21.75,28.84c.17.3.42.42.77.42h.53c.3,0,.47-.17.47-.59v-30.86c0-.89.42-1.3,1.3-1.3h6.32c.89,0,1.3.42,1.3,1.3v33.93c0,4.67-1.6,6.15-5.32,6.15h-5.26c-4.26,0-4.96-.89-6.8-3.48l-21.81-28.85c-.23-.29-.42-.42-.77-.42h-.53c-.36,0-.47.18-.47.59v30.86c0,.88-.47,1.3-1.3,1.3h-6.32c-.89,0-1.3-.42-1.3-1.3v-33.93c0-4.67,1.54-6.15,5.26-6.15h5.32Z"/>
    <path class="st0" d="M1003.41,189.1c.83,0,1.3.42,1.3,1.3v5.73c0,.83-.47,1.3-1.3,1.3h-29.62c-2.13,0-3.13,1.01-3.13,3.19v2c0,2.13.94,3.02,3.13,3.02h22.11c6.63,0,10.34,3.78,10.34,10.4v4.79c0,6.09-3.66,9.64-10.46,9.64h-32.74c-.89,0-1.3-.42-1.3-1.3v-5.74c0-.83.42-1.3,1.3-1.3h31.03c2.07,0,3.13-1.01,3.13-3.19v-2.43c0-2.13-.89-3.01-3.08-3.01h-22.17c-6.62,0-10.29-3.78-10.29-10.41v-4.37c0-6.09,3.61-9.64,10.4-9.64h31.33Z"/>
    <path class="st0" d="M1027.78,189.1c.89,0,1.3.42,1.3,1.3v23.58c0,6.27,1.77,8.1,7.86,8.1h16.38c6.09,0,7.8-1.83,7.8-8.1v-23.58c0-.89.47-1.3,1.3-1.3h6.44c.89,0,1.3.42,1.3,1.3v24.47c0,11.35-4.56,15.61-16.55,15.61h-16.96c-12,0-16.55-4.26-16.55-15.61v-24.47c0-.89.42-1.3,1.3-1.3h6.38Z"/>
    <path class="st0" d="M1092.71,189.1c.89,0,1.3.42,1.3,1.3v23.58c0,6.27,1.77,8.1,7.86,8.1h23.95c.82,0,1.3.42,1.3,1.3v5.8c0,.88-.47,1.3-1.3,1.3h-24.24c-12,0-16.55-4.26-16.55-15.61v-24.47c0-.89.42-1.3,1.3-1.3h6.38Z"/>
    <path class="st0" d="M1177.1,189.1c.89,0,1.36.42,1.36,1.3v5.8c0,.88-.47,1.3-1.36,1.3h-18.62v31.69c0,.88-.36,1.3-1.24,1.3h-6.44c-.83,0-1.3-.42-1.3-1.3v-31.69h-18.62c-.83,0-1.3-.42-1.3-1.3v-5.8c0-.89.47-1.3,1.3-1.3h46.22Z"/>
    <path class="st0" d="M1199.32,189.1c.88,0,1.3.42,1.3,1.3v38.78c0,.88-.42,1.3-1.3,1.3h-6.39c-.89,0-1.3-.42-1.3-1.3v-38.78c0-.89.42-1.3,1.3-1.3h6.39Z"/>
    <path class="st0" d="M1226.24,189.1c4.26,0,4.96.89,6.86,3.49l21.75,28.84c.17.3.42.42.77.42h.53c.3,0,.47-.17.47-.59v-30.86c0-.89.42-1.3,1.3-1.3h6.32c.89,0,1.3.42,1.3,1.3v33.93c0,4.67-1.6,6.15-5.32,6.15h-5.26c-4.26,0-4.96-.89-6.8-3.48l-21.81-28.85c-.23-.29-.42-.42-.77-.42h-.53c-.36,0-.47.18-.47.59v30.86c0,.88-.47,1.3-1.3,1.3h-6.32c-.89,0-1.3-.42-1.3-1.3v-33.93c0-4.67,1.54-6.15,5.26-6.15h5.32Z"/>
    <path class="st0" d="M1326.58,189.1c.83,0,1.3.42,1.3,1.3v5.8c0,.88-.47,1.3-1.3,1.3h-29.61c-6.09,0-7.87,1.83-7.87,8.1v8.51c0,6.26,1.77,8.04,7.87,8.04h19.51c2.07,0,2.95-.89,2.95-3.55v-4.37c0-.59-.23-.83-.71-.83h-17.32c-.83,0-1.3-.41-1.3-1.3v-5.2c0-.82.47-1.3,1.3-1.3h24.65c1.19,0,1.78.59,1.78,1.77v14.07c0,6.63-2.54,9.05-7.33,9.05h-23.82c-12,0-16.55-4.26-16.55-15.61v-10.17c0-11.35,4.56-15.61,16.55-15.61h29.91Z"/>
    <path class="st0" d="M1374.56,189.1c.89,0,1.3.42,1.3,1.3v23.58c0,6.27,1.77,8.1,7.86,8.1h23.95c.82,0,1.3.42,1.3,1.3v5.8c0,.88-.47,1.3-1.3,1.3h-24.24c-12,0-16.55-4.26-16.55-15.61v-24.47c0-.89.42-1.3,1.3-1.3h6.38Z"/>
    <path class="st0" d="M1458.94,189.1c.89,0,1.36.42,1.36,1.3v5.8c0,.88-.47,1.3-1.36,1.3h-18.62v31.69c0,.88-.36,1.3-1.24,1.3h-6.44c-.83,0-1.3-.42-1.3-1.3v-31.69h-18.62c-.83,0-1.3-.42-1.3-1.3v-5.8c0-.89.47-1.3,1.3-1.3h46.22Z"/>
    <path class="st0" d="M1502.86,189.1c12.82,0,18.09,5.15,18.09,16.67v8.04c0,11.52-5.26,16.67-18.09,16.67h-27.61c-1.19,0-1.78-.59-1.78-1.77v-37.83c0-1.18.59-1.78,1.78-1.78h27.61ZM1482.46,221.38c0,.53.23.77.77.77h19.39c6.98,0,9.35-2.13,9.35-9.1v-6.5c0-6.98-2.37-9.1-9.35-9.1h-19.39c-.53,0-.77.23-.77.77v23.17Z"/>
  </g>
</svg>