<?xml version="1.0" encoding="UTF-8"?>
<svg id="Layer_1" xmlns="http://www.w3.org/2000/svg" version="1.1" viewBox="0 0 1544.17 232.76">
  <!-- Generator: Adobe Illustrator 30.5.1, SVG Export Plug-In . SVG Version: 2.1.4 Build 3)  -->
  <defs>
    <style>
      .st0 {
        fill: #ba98ea;
      }

      .st1 {
        fill: #fff;
      }
    </style>
  </defs>
  <g>
    <g>
      <path class="st1" d="M205.16,156.78l-.13,48.57-48.57-.13c.03-12.43,4.81-24.85,14.32-34.31,9.51-9.46,21.95-14.17,34.38-14.13Z"/>
      <path class="st1" d="M162.31,99.29c-14.21,5.72-26.95,14.13-37.89,25.01-10.94,10.88-19.42,23.58-25.21,37.75-5.59,13.68-8.45,28.15-8.49,42.99l30.73.08c.03-10.86,2.12-21.44,6.21-31.44,4.23-10.35,10.43-19.63,18.44-27.59,8.01-7.96,17.32-14.11,27.69-18.29,10.02-4.03,20.62-6.06,31.48-6.03l.08-30.73c-14.84-.04-29.32,2.74-43.03,8.25Z"/>
      <path class="st0" d="M137.95,38.8c-22.3,8.97-42.32,22.18-59.5,39.27-17.18,17.08-30.5,37.03-39.6,59.28-8.78,21.49-13.27,44.2-13.33,67.51l30.73.08c.05-19.33,3.77-38.16,11.05-55.97,7.53-18.43,18.57-34.95,32.82-49.12,14.25-14.17,30.83-25.12,49.3-32.55,17.84-7.18,36.7-10.79,56.03-10.74l.08-30.73c-23.31-.07-46.05,4.3-67.58,12.96Z"/>
    </g>
    <path class="st1" d="M230.12,230.12H0V0h230.12v230.12ZM7.52,222.61h215.09V7.52H7.52v215.09Z"/>
  </g>
  <g>
    <path class="st1" d="M288.05.6c1.69,0,2.32.63,2.96,2.74l34.81,113.49c.42,1.06.84,1.48,1.69,1.48h1.05c.85,0,1.27-.42,1.69-1.48l33.54-104c2.74-9.08,7.59-12.24,15.61-12.24h22.36c9.28,0,13.92,3.16,16.66,12.24l34.18,104c.42,1.06.85,1.48,1.9,1.48h.85c1.05,0,1.47-.42,1.89-1.48L491.42,3.33c.63-2.11,1.69-2.74,3.17-2.74h27.84c1.9,0,2.53,2.11,1.69,4.85l-39.66,126.78c-3.8,12.45-8.02,16.03-16.24,16.03h-26.16c-8.22,0-12.44-3.59-16.24-16.03l-32.49-100.21c-.21-1.05-.63-1.47-1.48-1.47h-1.05c-.85,0-1.48.42-1.69,1.47l-32.49,100.21c-3.8,12.66-7.81,16.03-16.03,16.03h-25.1c-9.49,0-13.71-3.17-17.51-16.03L258.73,5.45c-.84-2.95-.63-4.85,1.69-4.85h27.64Z"/>
    <path class="st1" d="M567.47.6c3.17,0,4.65,1.47,4.65,4.64v138.39c0,3.16-1.48,4.64-4.65,4.64h-22.78c-3.16,0-4.64-1.48-4.64-4.64V5.23c0-3.17,1.48-4.64,4.64-4.64h22.78Z"/>
    <path class="st1" d="M744.84.6c2.95,0,4.65,1.47,4.65,4.64v20.47c0,2.95-1.69,4.64-4.65,4.64h-91.76c-21.73,0-28.06,6.12-28.06,28.27v3.17h118.56c2.95,0,4.65,1.69,4.65,4.64v18.78c0,3.17-1.69,4.64-4.65,4.64h-118.56v53.8c0,3.16-1.47,4.64-4.64,4.64h-22.78c-3.17,0-4.64-1.48-4.64-4.64V56.29c0-40.5,16.24-55.69,59.06-55.69h92.82Z"/>
    <path class="st1" d="M793.31.6c3.17,0,4.65,1.47,4.65,4.64v138.39c0,3.16-1.48,4.64-4.65,4.64h-22.78c-3.16,0-4.64-1.48-4.64-4.64V5.23c0-3.17,1.48-4.64,4.64-4.64h22.78Z"/>
    <path class="st0" d="M939.26.6c32.28,0,45.36,14.97,45.36,43.24v15.82c0,28.48-13.07,44.1-45.36,44.1h-87.33v39.87c0,3.16-1.48,4.64-4.65,4.64h-22.78c-3.16,0-4.64-1.48-4.64-4.64V6.92c0-4.22,2.11-6.32,6.33-6.32h113.07ZM932.73,74.64c14.35,0,19.62-5.7,19.62-18.14v-8.02c0-12.66-5.27-18.36-19.62-18.36h-78.06c-1.9,0-2.74.85-2.74,2.53v41.98h80.79Z"/>
    <path class="st0" d="M1120.54.6c31.43,0,45.36,14.13,45.36,43.24v12.24c0,24.47-9.7,38.82-30.59,43.04l35.23,43.67c1.69,2.11.63,5.48-2.75,5.48h-28.27c-3.37,0-4.42-.85-5.9-2.75l-33.54-42.82h-66.87v40.93c0,3.16-1.48,4.64-4.65,4.64h-22.78c-3.16,0-4.64-1.48-4.64-4.64V6.92c0-4.22,2.11-6.32,6.33-6.32h113.07ZM1114,74.85c14.35,0,19.62-5.06,19.62-17.73v-8.86c0-12.87-5.48-18.15-19.62-18.15h-78.06c-1.9,0-2.74.63-2.74,2.33v42.4h80.79Z"/>
    <path class="st0" d="M1308.1.6c42.82,0,59.06,15.19,59.06,55.69v36.29c0,40.5-16.24,55.69-59.06,55.69h-64.98c-42.82,0-59.06-15.4-59.06-55.69v-36.29c0-40.29,16.24-55.69,59.06-55.69h64.98ZM1216.12,90.25c0,22.14,6.12,28.26,28.06,28.26h62.66c21.94,0,28.06-6.12,28.06-28.26v-31.65c0-22.15-6.12-28.27-28.06-28.27h-62.66c-21.94,0-28.06,6.12-28.06,28.27v31.65Z"/>
    <path class="st0" d="M1534.04.6c2.96,0,4.65,1.47,4.65,4.64v20.47c0,2.95-1.69,4.64-4.65,4.64h-105.68c-7.6,0-11.18,3.59-11.18,11.4v7.17c0,7.6,3.37,10.76,11.18,10.76h78.9c23.63,0,36.92,13.5,36.92,37.13v17.09c0,21.73-13.08,34.39-37.34,34.39h-116.87c-3.17,0-4.64-1.48-4.64-4.64v-20.47c0-2.95,1.47-4.65,4.64-4.65h110.76c7.38,0,11.18-3.59,11.18-11.39v-8.65c0-7.59-3.16-10.76-10.97-10.76h-79.11c-23.62,0-36.71-13.5-36.71-37.13v-15.61c0-21.73,12.87-34.39,37.13-34.39h111.8Z"/>
  </g>
  <g>
    <path class="st1" d="M311.1,190.97c4.3,0,5.01.9,6.93,3.53l21.97,29.13c.18.3.42.42.77.42h.54c.3,0,.48-.18.48-.6v-31.16c0-.9.42-1.32,1.32-1.32h6.38c.9,0,1.32.42,1.32,1.32v34.27c0,4.71-1.61,6.21-5.37,6.21h-5.32c-4.3,0-5.01-.9-6.87-3.52l-22.03-29.14c-.24-.29-.42-.42-.77-.42h-.54c-.36,0-.48.18-.48.6v31.17c0,.89-.48,1.31-1.32,1.31h-6.38c-.9,0-1.32-.42-1.32-1.31v-34.27c0-4.72,1.55-6.21,5.32-6.21h5.37Z"/>
    <path class="st1" d="M408.53,190.97c.84,0,1.32.42,1.32,1.32v5.79c0,.84-.48,1.32-1.32,1.32h-26.21c-6.15,0-7.76,1.73-7.76,8v.29h33.61c.83,0,1.31.42,1.31,1.31v5.32c0,.9-.48,1.32-1.31,1.32h-33.61v.71c0,6.26,1.61,8,7.76,8h26.21c.84,0,1.32.47,1.32,1.31v5.79c0,.89-.48,1.31-1.32,1.31h-26.27c-12.12,0-16.72-4.36-16.72-15.76v-10.27c0-11.4,4.6-15.76,16.72-15.76h26.27Z"/>
    <path class="st1" d="M470.55,190.97c.9,0,1.38.42,1.38,1.32v5.85c0,.89-.48,1.31-1.38,1.31h-18.8v32c0,.89-.36,1.31-1.25,1.31h-6.51c-.84,0-1.32-.42-1.32-1.31v-32h-18.8c-.84,0-1.31-.42-1.31-1.31v-5.85c0-.9.47-1.32,1.31-1.32h46.68Z"/>
    <path class="st1" d="M492.19,190.97c.47,0,.66.18.83.78l9.85,32.12c.12.29.24.41.48.41h.3c.24,0,.35-.12.47-.41l9.5-29.43c.77-2.57,2.15-3.47,4.42-3.47h6.33c2.62,0,3.94.9,4.71,3.47l9.67,29.43c.12.29.24.41.54.41h.24c.3,0,.42-.12.54-.41l9.67-32.12c.18-.6.48-.78.9-.78h7.88c.54,0,.71.6.48,1.38l-11.23,35.88c-1.07,3.52-2.27,4.53-4.59,4.53h-7.41c-2.33,0-3.52-1.02-4.59-4.53l-9.19-28.36c-.06-.3-.18-.42-.42-.42h-.29c-.24,0-.42.12-.48.42l-9.19,28.36c-1.07,3.58-2.21,4.53-4.53,4.53h-7.1c-2.69,0-3.88-.9-4.95-4.53l-11.11-35.88c-.24-.84-.18-1.38.48-1.38h7.83Z"/>
    <path class="st1" d="M605.92,190.97c12.12,0,16.71,4.3,16.71,15.76v10.27c0,11.46-4.59,15.76-16.71,15.76h-18.39c-12.12,0-16.72-4.36-16.72-15.76v-10.27c0-11.4,4.6-15.76,16.72-15.76h18.39ZM579.89,216.34c0,6.26,1.73,8,7.94,8h17.73c6.21,0,7.94-1.74,7.94-8v-8.95c0-6.27-1.74-8-7.94-8h-17.73c-6.21,0-7.94,1.73-7.94,8v8.95Z"/>
    <path class="st1" d="M671.18,190.97c8.9,0,12.84,4,12.84,12.24v3.46c0,6.93-2.75,10.98-8.66,12.18l9.97,12.35c.48.6.18,1.55-.77,1.55h-8c-.96,0-1.25-.24-1.67-.77l-9.49-12.12h-18.93v11.59c0,.89-.42,1.31-1.31,1.31h-6.45c-.9,0-1.32-.42-1.32-1.31v-38.69c0-1.19.6-1.8,1.8-1.8h31.99ZM669.33,211.98c4.06,0,5.55-1.44,5.55-5.01v-2.51c0-3.64-1.55-5.13-5.55-5.13h-22.09c-.54,0-.77.18-.77.66v12h22.87Z"/>
    <path class="st1" d="M706.88,190.97c.89,0,1.31.42,1.31,1.32v15.58h8.3c4.06,0,5.07-.35,6.63-2.39l10.39-13.73c.42-.6.72-.78,1.74-.78h7.46c.9,0,1.19.84.71,1.44l-11.58,14.99c-1.31,1.73-2.44,3.04-3.58,4,1.61,1.02,3.04,2.39,4.53,4.3l12.24,15.52c.48.48.24,1.55-.77,1.55h-7.58c-.96,0-1.31-.18-1.73-.77l-11.04-14.15c-1.55-2.03-2.75-2.45-6.63-2.45h-9.08v16.06c0,.89-.42,1.31-1.31,1.31h-6.45c-.9,0-1.32-.42-1.32-1.31v-39.16c0-.9.42-1.32,1.32-1.32h6.45Z"/>
    <path class="st1" d="M825.16,190.97c.9,0,1.32.42,1.32,1.32v5.85c0,.89-.42,1.31-1.32,1.31h-26.56c-6.15,0-7.94,1.85-7.94,8.18v8.47c0,6.33,1.79,8.18,7.94,8.18h26.56c.9,0,1.32.42,1.32,1.32v5.85c0,.89-.42,1.31-1.32,1.31h-26.86c-12.12,0-16.72-4.3-16.72-15.76v-10.27c0-11.46,4.6-15.76,16.72-15.76h26.86Z"/>
    <path class="st1" d="M874.79,190.97c12.12,0,16.71,4.3,16.71,15.76v10.27c0,11.46-4.59,15.76-16.71,15.76h-18.39c-12.12,0-16.72-4.36-16.72-15.76v-10.27c0-11.4,4.6-15.76,16.72-15.76h18.39ZM848.76,216.34c0,6.26,1.73,8,7.94,8h17.73c6.21,0,7.94-1.74,7.94-8v-8.95c0-6.27-1.74-8-7.94-8h-17.73c-6.21,0-7.94,1.73-7.94,8v8.95Z"/>
    <path class="st1" d="M916.96,190.97c4.3,0,5.01.9,6.93,3.53l21.97,29.13c.18.3.42.42.77.42h.54c.3,0,.48-.18.48-.6v-31.16c0-.9.42-1.32,1.32-1.32h6.38c.9,0,1.32.42,1.32,1.32v34.27c0,4.71-1.61,6.21-5.37,6.21h-5.32c-4.3,0-5.01-.9-6.87-3.52l-22.03-29.14c-.24-.29-.42-.42-.77-.42h-.54c-.36,0-.48.18-.48.6v31.17c0,.89-.48,1.31-1.32,1.31h-6.38c-.9,0-1.32-.42-1.32-1.31v-34.27c0-4.72,1.55-6.21,5.32-6.21h5.37Z"/>
    <path class="st1" d="M1013.33,190.97c.84,0,1.32.42,1.32,1.32v5.79c0,.84-.48,1.32-1.32,1.32h-29.91c-2.15,0-3.16,1.02-3.16,3.22v2.02c0,2.15.95,3.05,3.16,3.05h22.33c6.69,0,10.45,3.82,10.45,10.51v4.84c0,6.15-3.7,9.73-10.56,9.73h-33.07c-.9,0-1.32-.42-1.32-1.31v-5.79c0-.84.42-1.31,1.32-1.31h31.34c2.09,0,3.17-1.02,3.17-3.22v-2.45c0-2.15-.9-3.04-3.11-3.04h-22.39c-6.68,0-10.39-3.82-10.39-10.51v-4.42c0-6.15,3.64-9.73,10.51-9.73h31.64Z"/>
    <path class="st1" d="M1037.94,190.97c.9,0,1.32.42,1.32,1.32v23.82c0,6.33,1.79,8.18,7.94,8.18h16.54c6.15,0,7.88-1.85,7.88-8.18v-23.82c0-.9.48-1.32,1.31-1.32h6.51c.9,0,1.32.42,1.32,1.32v24.71c0,11.46-4.6,15.76-16.72,15.76h-17.13c-12.12,0-16.72-4.3-16.72-15.76v-24.71c0-.9.42-1.32,1.32-1.32h6.44Z"/>
    <path class="st1" d="M1103.51,190.97c.9,0,1.32.42,1.32,1.32v23.82c0,6.33,1.79,8.18,7.94,8.18h24.18c.83,0,1.31.42,1.31,1.32v5.85c0,.89-.48,1.31-1.31,1.31h-24.48c-12.12,0-16.72-4.3-16.72-15.76v-24.71c0-.9.42-1.32,1.32-1.32h6.44Z"/>
    <path class="st1" d="M1188.73,190.97c.9,0,1.38.42,1.38,1.32v5.85c0,.89-.48,1.31-1.38,1.31h-18.8v32c0,.89-.36,1.31-1.25,1.31h-6.51c-.84,0-1.32-.42-1.32-1.31v-32h-18.8c-.84,0-1.31-.42-1.31-1.31v-5.85c0-.9.47-1.32,1.31-1.32h46.68Z"/>
    <path class="st1" d="M1211.18,190.97c.89,0,1.31.42,1.31,1.32v39.16c0,.89-.42,1.31-1.31,1.31h-6.45c-.9,0-1.32-.42-1.32-1.31v-39.16c0-.9.42-1.32,1.32-1.32h6.45Z"/>
    <path class="st1" d="M1238.36,190.97c4.3,0,5.01.9,6.93,3.53l21.97,29.13c.18.3.42.42.77.42h.54c.3,0,.48-.18.48-.6v-31.16c0-.9.42-1.32,1.32-1.32h6.38c.9,0,1.32.42,1.32,1.32v34.27c0,4.71-1.61,6.21-5.37,6.21h-5.32c-4.3,0-5.01-.9-6.87-3.52l-22.03-29.14c-.24-.29-.42-.42-.77-.42h-.54c-.36,0-.48.18-.48.6v31.17c0,.89-.48,1.31-1.32,1.31h-6.38c-.9,0-1.32-.42-1.32-1.31v-34.27c0-4.72,1.55-6.21,5.32-6.21h5.37Z"/>
    <path class="st1" d="M1339.7,190.97c.84,0,1.32.42,1.32,1.32v5.85c0,.89-.48,1.31-1.32,1.31h-29.9c-6.15,0-7.94,1.85-7.94,8.18v8.6c0,6.32,1.79,8.12,7.94,8.12h19.7c2.09,0,2.98-.9,2.98-3.59v-4.42c0-.6-.24-.84-.71-.84h-17.49c-.84,0-1.32-.41-1.32-1.31v-5.26c0-.83.48-1.31,1.32-1.31h24.89c1.2,0,1.8.6,1.8,1.79v14.21c0,6.69-2.57,9.14-7.41,9.14h-24.06c-12.12,0-16.72-4.3-16.72-15.76v-10.27c0-11.46,4.6-15.76,16.72-15.76h30.2Z"/>
    <path class="st1" d="M1388.15,190.97c.9,0,1.32.42,1.32,1.32v23.82c0,6.33,1.79,8.18,7.94,8.18h24.18c.83,0,1.31.42,1.31,1.32v5.85c0,.89-.48,1.31-1.31,1.31h-24.48c-12.12,0-16.72-4.3-16.72-15.76v-24.71c0-.9.42-1.32,1.32-1.32h6.44Z"/>
    <path class="st1" d="M1473.37,190.97c.9,0,1.38.42,1.38,1.32v5.85c0,.89-.48,1.31-1.38,1.31h-18.8v32c0,.89-.36,1.31-1.25,1.31h-6.51c-.84,0-1.32-.42-1.32-1.31v-32h-18.8c-.84,0-1.31-.42-1.31-1.31v-5.85c0-.9.47-1.32,1.31-1.32h46.68Z"/>
    <path class="st1" d="M1517.72,190.97c12.95,0,18.26,5.2,18.26,16.84v8.12c0,11.64-5.32,16.84-18.26,16.84h-27.88c-1.2,0-1.8-.6-1.8-1.79v-38.21c0-1.19.6-1.8,1.8-1.8h27.88ZM1497.12,223.56c0,.54.24.78.77.78h19.58c7.05,0,9.44-2.15,9.44-9.19v-6.57c0-7.05-2.39-9.19-9.44-9.19h-19.58c-.54,0-.77.24-.77.77v23.4Z"/>
  </g>
</svg>